<?xml version="1.0" standalone="no"?><!DOCTYPE svg PUBLIC "-//W3C//DTD SVG 1.1//EN" "http://www.w3.org/Graphics/SVG/1.1/DTD/svg11.dtd"><svg t="1766035701933" class="icon" viewBox="0 0 1024 1024" version="1.1" xmlns="http://www.w3.org/2000/svg" p-id="48778" id="mx_n_1766035701934" data-spm-anchor-id="a313x.search_index.0.i42.29f93a81Lncmmd" xmlns:xlink="http://www.w3.org/1999/xlink" width="32" height="32"><path d="M659.2 486.4 659.2 512c0 38.4-12.8 70.4-32 102.4 0 0 6.4 0 6.4 0 38.4 0 70.4-32 70.4-70.4C710.4 518.4 691.2 492.8 659.2 486.4zM512 0C230.4 0 0 230.4 0 512s230.4 512 512 512 512-230.4 512-512S793.6 0 512 0zM531.2 300.8l32 0 0 121.6L531.2 422.4 531.2 300.8zM435.2 268.8l32 0 0 153.6L435.2 422.4 435.2 268.8zM345.6 300.8l32 0 0 121.6L345.6 422.4 345.6 300.8zM640 665.6c-12.8 0-25.6 0-38.4-6.4l0 0c-32 32-83.2 51.2-134.4 51.2l217.6 0 0 44.8L268.8 755.2l0-44.8 198.4 0c-108.8 0-198.4-89.6-198.4-198.4L268.8 435.2l390.4 0 0 0c51.2 12.8 89.6 57.6 89.6 115.2C755.2 614.4 704 665.6 640 665.6z" p-id="48779" data-spm-anchor-id="a313x.search_index.0.i41.29f93a81Lncmmd" class="" fill="#ffa73e"></path></svg>