<?xml version="1.0" standalone="no"?><!DOCTYPE svg PUBLIC "-//W3C//DTD SVG 1.1//EN" "http://www.w3.org/Graphics/SVG/1.1/DTD/svg11.dtd"><svg t="1766034847990" class="icon" viewBox="0 0 1024 1024" version="1.1" xmlns="http://www.w3.org/2000/svg" p-id="5483" xmlns:xlink="http://www.w3.org/1999/xlink" width="32" height="32"><path d="M325.820632 977.461895a186.179368 46.538105 0 1 0 372.358736 0 186.179368 46.538105 0 1 0-372.358736 0Z" fill="#000000" fill-opacity=".413" p-id="5484"></path><path d="M512 0c218.516211 0 395.641263 177.125053 395.641263 395.641263 0 106.118737-41.768421 202.482526-109.810526 273.542737l-24.090948 24.468211-30.369684 31.582315-48.774737 51.954527-52.547368 56.858947-77.877895 85.207579-34.923789 38.480842a23.282526 23.282526 0 0 1-32.390737 2.048l-2.101895-2.048-59.715368-65.697684-73.83579-80.49179-37.78021-40.771368-47.562105-50.526316-21.692632-22.581895-21.557895-21.90821a394.401684 394.401684 0 0 1-116.250947-280.117895C116.358737 177.125053 293.483789 0 512 0z" fill="#FFFFFF" p-id="5485"></path><path d="M512 11.641263c-212.075789 0-384 171.924211-384 384 0 103.397053 41.040842 200.299789 112.828632 271.898948l17.677473 17.893052 21.072842 21.854316 35.166316 37.187368 41.795369 44.867369 79.063579 86.042947 67.772631 74.536421c4.311579 4.742737 11.668211 5.12 16.437895 0.808421l0.808421-0.808421 98.411789-108.032 54.784-59.418947 40.825264-43.762526 20.37221-21.557895 30.450526-31.690105 14.416842-14.659369 3.260632-3.260631a382.706526 382.706526 0 0 0 112.855579-271.898948c0-212.075789-171.924211-384-384-384z" fill="#31fc49" p-id="5486" data-spm-anchor-id="a313x.search_index.0.i3.29f93a81Lncmmd" class="selected"></path><path d="M535.713684 183.646316l189.709474 171.385263c9.566316 8.677053 10.293895 23.444211 1.562947 32.956632a23.552 23.552 0 0 1-17.381052 7.653052h-34.708211v186.179369c0 19.267368-15.629474 34.896842-34.896842 34.896842h-58.206316v-116.358737a23.282526 23.282526 0 0 0-21.504-23.201684l-1.751579-0.053895h-93.07621a23.282526 23.282526 0 0 0-23.228632 21.530947l-0.053895 1.724632v116.358737H384c-19.267368 0-34.896842-15.629474-34.896842-34.896842v-186.206316h-34.708211a23.282526 23.282526 0 1 1-15.791158-40.609684l189.709474-171.358316c13.419789-12.126316 33.953684-12.126316 47.373474 0z" fill="#FFFFFF" p-id="5487"></path></svg>