<?xml version="1.0" standalone="no"?><!DOCTYPE svg PUBLIC "-//W3C//DTD SVG 1.1//EN" "http://www.w3.org/Graphics/SVG/1.1/DTD/svg11.dtd"><svg t="1766034989977" class="icon" viewBox="0 0 1029 1024" version="1.1" xmlns="http://www.w3.org/2000/svg" p-id="8746" data-spm-anchor-id="a313x.search_index.0.i13.29f93a81Lncmmd" xmlns:xlink="http://www.w3.org/1999/xlink" width="32.15625" height="32"><path d="M785.066667 455.111111l-176.355556-34.133333-85.333333-159.288889c0-5.688889-11.377778-11.377778-11.377778-11.377778s-11.377778 5.688889-17.066667 11.377778L409.6 420.977778 233.244444 455.111111c-11.377778 0-17.066667 5.688889-17.066666 5.688889s0 11.377778 5.688889 17.066667L341.333333 614.4l-17.066666 176.355556v17.066666H341.333333l170.666667-73.955555 159.288889 73.955555h17.066667s5.688889-11.377778 0-17.066666l-17.066667-176.355556L796.444444 477.866667c5.688889-5.688889 11.377778-17.066667 5.688889-17.066667 0 0-5.688889-5.688889-17.066666-5.688889z" fill="#ffffff" p-id="8747" data-spm-anchor-id="a313x.search_index.0.i12.29f93a81Lncmmd" class=""></path><path d="M534.755556 39.822222h-45.511112C221.866667 39.822222 0 261.688889 0 529.066667s221.866667 489.244444 489.244444 489.244444h51.2c267.377778 0 489.244444-221.866667 489.244445-489.244444S802.133333 39.822222 534.755556 39.822222zM830.577778 512l-102.4 113.777778 17.066666 153.6c0 28.444444-5.688889 51.2-22.755555 62.577778-5.688889 5.688889-17.066667 11.377778-34.133333 11.377777-11.377778 0-22.755556 0-34.133334-5.688889L512 785.066667 369.777778 853.333333c-22.755556 11.377778-51.2 11.377778-68.266667 0-17.066667-11.377778-28.444444-34.133333-22.755555-62.577777l17.066666-153.6L187.733333 512c-17.066667-17.066667-22.755556-45.511111-17.066666-68.266667 11.377778-17.066667 28.444444-34.133333 56.888889-39.822222l153.6-34.133333L455.111111 238.933333c17.066667-22.755556 34.133333-34.133333 56.888889-34.133333s45.511111 17.066667 56.888889 39.822222l73.955555 136.533334 153.6 28.444444c28.444444 5.688889 45.511111 22.755556 51.2 39.822222 11.377778 22.755556 5.688889 45.511111-17.066666 62.577778z" fill="#006bfa" p-id="8748" data-spm-anchor-id="a313x.search_index.0.i14.29f93a81Lncmmd" class="selected"></path></svg>