<?xml version="1.0" standalone="no"?><!DOCTYPE svg PUBLIC "-//W3C//DTD SVG 1.1//EN" "http://www.w3.org/Graphics/SVG/1.1/DTD/svg11.dtd"><svg t="1766035259828" class="icon" viewBox="0 0 1024 1024" version="1.1" xmlns="http://www.w3.org/2000/svg" p-id="22663" data-spm-anchor-id="a313x.search_index.0.i20.29f93a81Lncmmd" xmlns:xlink="http://www.w3.org/1999/xlink" width="32" height="32"><path d="M512 512m-512 0a512 512 0 1 0 1024 0 512 512 0 1 0-1024 0Z" fill="#ff369d" p-id="22664" data-spm-anchor-id="a313x.search_index.0.i18.29f93a81Lncmmd" class="selected"></path><path d="M451.2 316.8v-118.4c0-12.8 9.6-22.4 22.4-22.4s22.4 9.6 22.4 22.4v192c-1.6 28.8-28.8 54.4-48 73.6-3.2 1.6-4.8 6.4-4.8 11.2v296c0 41.6-14.4 78.4-59.2 78.4s-59.2-36.8-59.2-78.4V473.6c0-4.8-1.6-8-4.8-11.2-17.6-19.2-46.4-44.8-48-73.6v-192c0-12.8 9.6-22.4 22.4-22.4s22.4 9.6 22.4 22.4v118.4c0 12.8 9.6 22.4 22.4 22.4 12.8 0 22.4-9.6 22.4-22.4v-118.4c0-12.8 9.6-22.4 22.4-22.4s22.4 9.6 22.4 22.4v118.4c0 12.8 9.6 22.4 22.4 22.4 12.8 1.6 22.4-8 22.4-20.8zM580.8 577.6c-11.2 0-20.8-9.6-20.8-20.8 32-219.2 68.8-366.4 169.6-380.8 12.8-1.6 22.4 9.6 22.4 22.4v572.8c0 46.4-1.6 75.2-36.8 75.2s-36.8-30.4-36.8-75.2V600c0-12.8-36.8-22.4-48-22.4h-49.6z" fill="#FFFFFF" p-id="22665"></path></svg>